<svg xmlns="http://www.w3.org/2000/svg" width="900" height="520" viewBox="0 0 900 520" role="img" aria-label="Kurban tahap 3">
<defs>
  <linearGradient id="bg" x1="0" y1="0" x2="1" y2="1"><stop stop-color="#e4f7ed"/><stop offset="1" stop-color="#ffe7dc"/></linearGradient>
  <filter id="shadow" x="-30%" y="-30%" width="160%" height="160%"><feDropShadow dx="0" dy="8" stdDeviation="10" flood-color="#063f35" flood-opacity=".18"/></filter>
</defs>
<rect width="900" height="520" rx="34" fill="url(#bg)"/>
<circle cx="780" cy="88" r="54" fill="#f8cf4b" opacity=".72"/>
<path d="M0 420 Q180 380 350 430 T900 410 V520 H0Z" fill="#cfe7df"/>

<g transform="translate(700 160) scale(0.85)" opacity=".18">
  <rect x="-90" y="45" width="180" height="120" rx="10" fill="#8d4d45"/>
  <path d="M-110 45 Q0 -65 110 45Z" fill="#8d4d45"/>
  <rect x="-130" y="0" width="26" height="165" rx="8" fill="#8d4d45"/>
  <path d="M-141 0 Q-117 -38 -93 0Z" fill="#8d4d45"/>
  <rect x="104" y="0" width="26" height="165" rx="8" fill="#8d4d45"/>
  <path d="M93 0 Q117 -38 141 0Z" fill="#8d4d45"/>
</g><g transform="translate(260 120) scale(0.7)" filter="url(#shadow)"><path d="M-48 8 Q0 -34 48 8Z" fill="#153a34"/><circle cx="0" cy="40" r="42" fill="#d99870"/><rect x="-48" y="78" width="96" height="126" rx="34" fill="#b95d55"/><path d="M-35 201 L-46 302 Q-47 322 -25 324 L-4 324 L0 210Z" fill="#244d49"/><path d="M35 201 L46 302 Q47 322 25 324 L4 324 L0 210Z" fill="#244d49"/><rect x="-48" y="317" width="50" height="18" rx="9" fill="#173a35"/><rect x="-2" y="317" width="50" height="18" rx="9" fill="#173a35"/><path d="M-42 100 Q-70 160 -52 210" fill="none" stroke="#d99870" stroke-width="22" stroke-linecap="round"/><path d="M42 100 Q70 160 52 210" fill="none" stroke="#d99870" stroke-width="22" stroke-linecap="round"/></g><g transform="translate(560 250)" filter="url(#shadow)"><ellipse cx="0" cy="0" rx="120" ry="65" fill="#f4eee5"/><circle cx="110" cy="-35" r="45" fill="#f4eee5"/><path d="M125 -70 q35 -30 45 10 M95 -72 q-35 -30 -45 10" fill="none" stroke="#8a6b53" stroke-width="10"/><path d="M-80 45 v90 M-10 50 v90 M70 45 v90" stroke="#8a6b53" stroke-width="18" stroke-linecap="round"/><circle cx="125" cy="-40" r="5" fill="#222"/></g><path d="M350 350 H760" stroke="#f5bd38" stroke-width="10" stroke-dasharray="18 12"/><path d="M720 320 l40 30 -40 30" fill="#f5bd38"/></svg>