<svg xmlns="http://www.w3.org/2000/svg" width="900" height="520" viewBox="0 0 900 520" role="img" aria-label="Kurban tahap 4">
<defs>
  <linearGradient id="bg" x1="0" y1="0" x2="1" y2="1"><stop stop-color="#e4f7ed"/><stop offset="1" stop-color="#ffe7dc"/></linearGradient>
  <filter id="shadow" x="-30%" y="-30%" width="160%" height="160%"><feDropShadow dx="0" dy="8" stdDeviation="10" flood-color="#063f35" flood-opacity=".18"/></filter>
</defs>
<rect width="900" height="520" rx="34" fill="url(#bg)"/>
<circle cx="780" cy="88" r="54" fill="#f8cf4b" opacity=".72"/>
<path d="M0 420 Q180 380 350 430 T900 410 V520 H0Z" fill="#cfe7df"/>

<g transform="translate(700 160) scale(0.85)" opacity=".18">
  <rect x="-90" y="45" width="180" height="120" rx="10" fill="#8d4d45"/>
  <path d="M-110 45 Q0 -65 110 45Z" fill="#8d4d45"/>
  <rect x="-130" y="0" width="26" height="165" rx="8" fill="#8d4d45"/>
  <path d="M-141 0 Q-117 -38 -93 0Z" fill="#8d4d45"/>
  <rect x="104" y="0" width="26" height="165" rx="8" fill="#8d4d45"/>
  <path d="M93 0 Q117 -38 141 0Z" fill="#8d4d45"/>
</g><g transform="translate(560 250)" filter="url(#shadow)"><ellipse cx="0" cy="0" rx="120" ry="65" fill="#f4eee5"/><circle cx="110" cy="-35" r="45" fill="#f4eee5"/><path d="M125 -70 q35 -30 45 10 M95 -72 q-35 -30 -45 10" fill="none" stroke="#8a6b53" stroke-width="10"/><path d="M-80 45 v90 M-10 50 v90 M70 45 v90" stroke="#8a6b53" stroke-width="18" stroke-linecap="round"/><circle cx="125" cy="-40" r="5" fill="#222"/></g><rect x="110" y="230" width="170" height="95" rx="24" fill="#fff" stroke="#8d4d45" stroke-width="9"/><path d="M145 280 h100" stroke="#8d4d45" stroke-width="12" stroke-linecap="round"/><circle cx="194" cy="180" r="55" fill="#f8d76a"/><path d="M194 145 v70 M160 180 h68" stroke="#8d4d45" stroke-width="10"/></svg>